<?xml version="1.0" encoding="UTF-8"?>
<svg id="Layer_2" xmlns="http://www.w3.org/2000/svg" version="1.1" viewBox="0 0 792 612">
  <!-- Generator: Adobe Illustrator 29.7.1, SVG Export Plug-In . SVG Version: 2.1.1 Build 8)  -->
  <defs>
    <style>
      .st0 {
        fill: #5baf6a;
      }

      .st1 {
        fill: #44a3db;
      }

      .st2 {
        fill: #fff;
      }

      .st3 {
        fill: #febe2d;
      }
    </style>
  </defs>
  <g>
    <path class="st3" d="M128.43,276.71c4.47-1.31,8.61-3.44,12.5-6.11,7.71-5.3,13.9-12.19,20.35-18.82,1.81-1.86,3.66-3.7,5.59-5.44-5.55-.55-11.12-.77-16.69-.65-3.36,4.03-6.96,7.81-10.99,11.17-5.95,4.97-12.71,8.24-20.36,9.67-5.88,1.1-11.77,2.17-17.61,3.43v14.26c3.03-1.24,6.14-2.29,9.37-3.05,5.97-1.4,11.97-2.73,17.84-4.46Z"/>
    <path class="st3" d="M119.31,259.77c4.7-1.19,9.08-3.22,13.12-6.07,3.16-2.23,6-4.77,8.62-7.51-9.58.85-19.07,2.71-28.26,5.62-3.92,1.24-7.71,2.78-11.57,4.16v6.6c1.81-.24,3.63-.44,5.43-.71,4.23-.65,8.53-1.04,12.66-2.09Z"/>
  </g>
  <g>
    <path class="st0" d="M109.62,301.29c4.38-2.77,9.16-4.41,14.09-5.81,5.16-1.47,10.32-2.97,15.33-4.86,4.16-1.57,8.32-3.23,12.03-5.83,3.81-2.68,7.77-5.13,11.57-7.82,2.76-1.95,5.35-4.13,8.06-6.15,1.28-.95,2.68-1.74,4-2.64,5.2-3.54,10.87-5.97,17.09-6.89,2.38-.35,4.89-.42,7.26-.08,2.1.31,4.17.72,6.22,1.26v-6.49c-8.05-3.12-16.24-5.88-24.73-7.59,0,0-.02,0-.03,0-.35.15-.7.3-1.05.46-4.37,2.05-8.21,4.87-11.8,8.09-5.6,5.03-11.2,10.08-16.94,14.94-3.95,3.35-8.33,6.08-13.02,8.36-4.42,2.14-9.13,3.24-13.79,4.57-4.97,1.43-10.03,2.62-14.87,4.4-2.71.99-5.32,2.25-7.85,3.69v15.31c2.47-2.68,5.3-4.94,8.42-6.91Z"/>
    <path class="st0" d="M128.38,312.1c7.7-2.78,15.61-4.81,23.5-6.96,5.35-1.46,10.62-3.27,15.66-5.67,2.59-1.24,5.29-2.25,7.93-3.41,3.92-1.72,7.86-3.35,12-4.52,6.09-1.72,12.03-1.77,17.82-.13v-18.25c-.71-.17-1.41-.34-2.12-.47-7.57-1.4-14.76-.24-21.6,3.21-1.26.63-2.56,1.18-3.76,1.9-4.48,2.69-8.9,5.49-13.4,8.16-5.05,3-10.01,6.18-15.55,8.26-3.7,1.39-7.44,2.7-11.2,3.94-5.15,1.71-10.4,3.16-15.49,5.04-4.37,1.62-8.45,3.83-12.01,7-3.07,2.73-5.68,5.8-7.94,9.18.61,3.04,1.49,6,2.79,8.91.59,1.33,1.27,2.57,1.99,3.77,1.8-3.12,3.72-6.21,5.96-9.01,4.07-5.07,9.25-8.74,15.42-10.96Z"/>
  </g>
  <g>
    <path class="st1" d="M151.99,351.41c-5.28-.06-9.95,1.6-14.01,4.74.69.4,1.37.79,2.05,1.2,4.57,2.73,8.95,5.71,13.13,9,1.38-.62,2.58-1.93,3.84-2.84,4.85-3.5,10.03-6.44,15.15-9.32-2.08-.47-4.16-.9-6.27-1.29-4.61-.85-9.2-1.45-13.88-1.5Z"/>
    <path class="st1" d="M162.95,332.51c-5.3-.35-10.63-.57-15.89.29-4.85.8-9.71,1.8-13.8,4.83-3.62,2.68-6.59,6.01-9.17,9.68-.14.2-.26.4-.39.6,2.68,1.68,5.45,3.26,8.24,4.82.09-.1.16-.21.25-.31,4.07-4.61,9.04-7.57,15.33-8.2,6.24-.62,12.39-.05,18.53.93,3.72.59,7.47,1.16,11.12,2.07,1.6.4,3.2.81,4.79,1.24,5.33-3.33,10.24-7,14.16-11.67-5.84-1.94-11.88-2.83-18.05-3.22-5.04-.32-10.08-.73-15.12-1.06Z"/>
    <path class="st1" d="M205.3,305.41c-1.01-.38-2.04-.74-3.09-1.05-4.07-1.18-8.24-1.29-12.36-.61-3.65.6-7.24,1.58-10.81,2.55-4.75,1.28-9.41,2.89-14.19,4.04-5.15,1.24-10.43,1.98-15.59,3.2-5.65,1.34-11.31,2.73-16.82,4.56-4.04,1.34-7.76,3.52-10.97,6.47-4.21,3.87-7.49,8.41-10.13,13.43,2.16,2.39,4.58,4.49,7.16,6.41,2.55-4.19,5.54-8.08,9.28-11.32,4.18-3.62,9.14-5.74,14.56-6.86,5.15-1.06,10.36-1.51,15.6-1.81,7.34-.43,14.67-.98,22.01-1.33,3.57-.17,7.17-.23,10.72.07,4.08.35,8,1.38,11.77,2.87.97-2.56,1.72-5.35,2.21-8.44.29-1.88.36-3.78.63-5.66v-6.51Z"/>
  </g>
  <g>
    <path class="st2" d="M267.83,260.31c2.59-1.66,5.68-2.49,9.28-2.49,3.94,0,7.09.9,9.45,2.7,2.36,1.8,3.88,4.3,4.55,7.51h12.15c-1.13-6.35-3.95-11.3-8.48-14.85-4.53-3.54-10.36-5.31-17.5-5.31-5.91,0-11.01,1.29-15.31,3.88-4.3,2.59-7.61,6.19-9.91,10.8-2.31,4.61-3.46,9.93-3.46,15.94s1.15,11.32,3.46,15.9c2.31,4.58,5.61,8.16,9.91,10.71,4.3,2.56,9.4,3.84,15.31,3.84,7.14,0,12.98-1.73,17.5-5.19,4.53-3.46,7.32-8.31,8.39-14.55h-12.06c-.73,3.21-2.26,5.65-4.6,7.34-2.33,1.69-5.47,2.53-9.41,2.53-3.6,0-6.69-.83-9.28-2.49-2.59-1.66-4.58-4.02-5.99-7.09-1.41-3.07-2.11-6.74-2.11-11.01s.7-7.96,2.11-11.05c1.41-3.09,3.4-5.47,5.99-7.13ZM310.76,307.93h10.97v-60.74h-10.97v60.74ZM361.55,267.78c-3.15-1.8-6.8-2.7-10.97-2.7s-8.13.94-11.39,2.83c-3.26,1.89-5.81,4.51-7.63,7.89-1.83,3.37-2.74,7.23-2.74,11.56s.93,8.03,2.79,11.26c1.86,3.23,4.41,5.77,7.67,7.59,3.26,1.83,7.03,2.74,11.31,2.74,3.37,0,6.41-.62,9.11-1.86,2.7-1.24,4.96-2.94,6.79-5.1,1.83-2.16,3.13-4.57,3.92-7.21h-11.14c-.79,1.58-1.91,2.84-3.37,3.8s-3.26,1.43-5.4,1.43-3.94-.46-5.57-1.39c-1.63-.93-2.93-2.26-3.88-4.01-.79-1.44-1.24-3.11-1.37-4.98h31.74c.11-.73.17-1.43.17-2.11v-1.86c0-3.94-.88-7.45-2.66-10.54-1.77-3.09-4.23-5.54-7.38-7.34ZM339.9,282.88c.24-1.35.62-2.56,1.19-3.58.98-1.77,2.32-3.11,4.01-4.01,1.69-.9,3.54-1.35,5.57-1.35,2.7,0,4.98.82,6.83,2.45,1.86,1.63,2.87,3.8,3.04,6.5h-20.64ZM417.65,298.31c-.56-.28-.97-.93-1.23-1.94-.25-1.01-.38-2.59-.38-4.72v-9.45c0-5.45-1.76-9.67-5.27-12.65-3.52-2.98-8.39-4.47-14.63-4.47-3.15,0-6.03.54-8.65,1.6-2.61,1.07-4.76,2.63-6.45,4.68-1.69,2.05-2.7,4.57-3.04,7.55h10.38c.39-1.91,1.32-3.25,2.78-4.01,1.46-.76,3.12-1.14,4.98-1.14,2.64,0,4.79.68,6.45,2.02s2.49,3.49,2.49,6.41v2.02c-1.13-.39-2.56-.76-4.3-1.1-1.74-.34-3.82-.51-6.24-.51-5.12,0-9.25,1.19-12.4,3.58-3.15,2.39-4.72,5.78-4.72,10.17,0,2.31.59,4.42,1.77,6.33,1.18,1.91,2.91,3.43,5.19,4.55,2.28,1.12,4.99,1.69,8.14,1.69s5.79-.65,8.1-1.94c2.3-1.29,4.16-2.92,5.57-4.89.9,2.31,2.33,3.85,4.3,4.64s4.44,1.18,7.42,1.18h2.36v-9.2h-.34c-.96,0-1.72-.14-2.28-.42ZM402.71,295.99c-.84,1.43-1.9,2.56-3.16,3.37-1.26.82-2.8,1.22-4.6,1.22-2.03,0-3.61-.48-4.77-1.43-1.15-.96-1.73-2.19-1.73-3.71,0-1.74.66-3.11,1.98-4.09,1.32-.98,3.08-1.48,5.27-1.48,1.57,0,3.13.16,4.68.46,1.55.31,2.91.63,4.09.97-.34,1.69-.93,3.25-1.77,4.68ZM442.61,267.48c-1.69,1.21-3.07,2.88-4.13,5.02v-6.41h-10.97v41.84h10.97v-18.14c0-3.15.31-5.79.93-7.93.62-2.14,1.59-3.74,2.91-4.81,1.32-1.07,2.99-1.6,5.02-1.6h6.41v-9.79h-5.31c-2.19,0-4.13.61-5.82,1.81ZM526.65,248.88l-10.56,46.85-12.05-46.85h-12.06l-12.45,46.88-10.58-46.88h-11.64l15.61,59.05h12.9l11.97-43.51,11.65,43.51h13.07l15.94-59.05h-11.81ZM578.36,298.31c-.56-.28-.97-.93-1.23-1.94-.25-1.01-.38-2.59-.38-4.72v-9.45c0-5.45-1.76-9.67-5.27-12.65-3.52-2.98-8.39-4.47-14.63-4.47-3.15,0-6.03.54-8.65,1.6-2.61,1.07-4.76,2.63-6.45,4.68-1.69,2.05-2.7,4.57-3.04,7.55h10.38c.39-1.91,1.32-3.25,2.78-4.01,1.46-.76,3.12-1.14,4.98-1.14,2.64,0,4.79.68,6.45,2.02,1.66,1.35,2.49,3.49,2.49,6.41v2.02c-1.13-.39-2.56-.76-4.3-1.1-1.74-.34-3.82-.51-6.24-.51-5.12,0-9.25,1.19-12.4,3.58-3.15,2.39-4.72,5.78-4.72,10.17,0,2.31.59,4.42,1.77,6.33,1.18,1.91,2.91,3.43,5.19,4.55,2.28,1.12,4.99,1.69,8.14,1.69s5.79-.65,8.1-1.94c2.3-1.29,4.16-2.92,5.57-4.89.9,2.31,2.33,3.85,4.3,4.64,1.97.79,4.44,1.18,7.42,1.18h2.36v-9.2h-.34c-.96,0-1.72-.14-2.28-.42ZM563.43,295.99c-.84,1.43-1.9,2.56-3.16,3.37s-2.8,1.22-4.6,1.22c-2.03,0-3.61-.48-4.77-1.43-1.15-.96-1.73-2.19-1.73-3.71,0-1.74.66-3.11,1.98-4.09,1.32-.98,3.08-1.48,5.27-1.48,1.57,0,3.13.16,4.68.46,1.55.31,2.91.63,4.09.97-.34,1.69-.93,3.25-1.77,4.68ZM601.05,254.87h-10.97v11.22h-7.17v9.19h7.17v19.74c0,3.54.48,6.26,1.43,8.14.96,1.88,2.41,3.15,4.35,3.8s4.32.97,7.13.97h8.35v-9.36h-5.06c-1.35,0-2.42-.11-3.21-.34-.79-.22-1.32-.69-1.6-1.39-.28-.7-.42-1.76-.42-3.16v-18.39h10.54v-9.19h-10.54v-11.22ZM647.11,267.78c-3.15-1.8-6.8-2.7-10.97-2.7s-8.13.94-11.39,2.83c-3.26,1.89-5.81,4.51-7.63,7.89-1.83,3.37-2.74,7.23-2.74,11.56s.93,8.03,2.79,11.26c1.86,3.23,4.41,5.77,7.67,7.59,3.26,1.83,7.03,2.74,11.31,2.74,3.37,0,6.41-.62,9.11-1.86,2.7-1.24,4.96-2.94,6.79-5.1,1.83-2.16,3.13-4.57,3.92-7.21h-11.14c-.79,1.58-1.91,2.84-3.37,3.8s-3.26,1.43-5.4,1.43-3.94-.46-5.57-1.39c-1.63-.93-2.93-2.26-3.88-4.01-.79-1.44-1.24-3.11-1.37-4.98h31.74c.11-.73.17-1.43.17-2.11v-1.86c0-3.94-.88-7.45-2.66-10.54-1.77-3.09-4.23-5.54-7.38-7.34ZM625.46,282.88c.24-1.35.62-2.56,1.19-3.58.98-1.77,2.32-3.11,4.01-4.01,1.69-.9,3.54-1.35,5.57-1.35,2.7,0,4.98.82,6.83,2.45,1.86,1.63,2.87,3.8,3.04,6.5h-20.64ZM685.49,265.67c-2.19,0-4.13.61-5.82,1.81-1.69,1.21-3.07,2.88-4.13,5.02v-6.41h-10.97v41.84h10.97v-18.14c0-3.15.31-5.79.93-7.93.62-2.14,1.59-3.74,2.91-4.81,1.32-1.07,2.99-1.6,5.02-1.6h6.41v-9.79h-5.31Z"/>
    <path class="st2" d="M307.46,343.17c1.15-.74,2.53-1.11,4.13-1.11,1.75,0,3.15.4,4.2,1.2,1.05.8,1.72,1.91,2.03,3.34h5.4c-.5-2.83-1.76-5.03-3.77-6.6-2.02-1.58-4.61-2.36-7.79-2.36-2.63,0-4.9.57-6.81,1.72-1.91,1.15-3.38,2.75-4.41,4.8-1.03,2.05-1.54,4.42-1.54,7.09s.51,5.03,1.54,7.07c1.02,2.04,2.49,3.63,4.41,4.77,1.91,1.14,4.18,1.71,6.81,1.71,3.18,0,5.77-.77,7.79-2.31,2.01-1.54,3.26-3.7,3.73-6.47h-5.37c-.32,1.43-1.01,2.51-2.04,3.26-1.04.75-2.43,1.13-4.19,1.13-1.6,0-2.98-.37-4.13-1.11-1.15-.74-2.04-1.79-2.66-3.15-.63-1.36-.94-3-.94-4.9s.31-3.54.94-4.92c.63-1.38,1.52-2.43,2.66-3.17ZM352.92,339.36c-1.96-1.15-4.26-1.72-6.88-1.72s-4.89.57-6.87,1.72c-1.98,1.15-3.52,2.75-4.63,4.78-1.12,2.04-1.67,4.4-1.67,7.07s.55,5.07,1.67,7.09c1.11,2.03,2.66,3.61,4.63,4.77,1.98,1.15,4.27,1.73,6.87,1.73s4.92-.57,6.88-1.73c1.97-1.15,3.5-2.74,4.62-4.77,1.11-2.03,1.67-4.39,1.67-7.09s-.56-5.03-1.67-7.07c-1.12-2.04-2.65-3.63-4.62-4.78ZM353.24,356.14c-.68,1.38-1.63,2.43-2.85,3.17-1.23.74-2.66,1.11-4.32,1.11s-3.1-.37-4.33-1.11c-1.24-.74-2.19-1.8-2.87-3.17-.68-1.38-1.02-3.01-1.02-4.92s.34-3.54,1.02-4.92c.68-1.38,1.63-2.43,2.87-3.17,1.24-.74,2.68-1.11,4.33-1.11s3.09.37,4.32,1.11c1.23.74,2.18,1.8,2.85,3.17.68,1.38,1.01,3.01,1.01,4.92s-.34,3.54-1.01,4.92ZM386.9,356.48l-12.27-18.39h-4.88v26.27h4.88v-18.35l12.27,18.35h4.88v-26.27h-4.88v18.39ZM415.46,349.31l-4.13-.75c-1.25-.23-2.16-.63-2.72-1.22-.56-.59-.85-1.26-.85-2.01,0-.88.25-1.57.75-2.08s1.13-.88,1.88-1.11c.75-.23,1.48-.34,2.18-.34.75,0,1.48.13,2.2.38.71.25,1.33.68,1.84,1.29.51.61.84,1.48.99,2.61h4.58c-.17-1.95-.7-3.55-1.58-4.78-.87-1.24-2.01-2.16-3.41-2.76-1.4-.6-2.98-.9-4.73-.9s-3.21.31-4.61.94c-1.4.63-2.51,1.51-3.34,2.66-.82,1.15-1.24,2.55-1.24,4.2,0,1.8.61,3.36,1.82,4.67,1.21,1.31,2.9,2.17,5.05,2.57l4.47.83c1.4.25,2.31.68,2.74,1.29.43.61.64,1.31.64,2.08s-.22,1.41-.66,1.97c-.44.56-1.04.99-1.8,1.29-.76.3-1.63.45-2.61.45-.87,0-1.76-.14-2.64-.43-.89-.29-1.65-.79-2.29-1.52-.64-.73-1.06-1.73-1.26-3h-4.5c.12,1.63.52,3.02,1.18,4.18.66,1.16,1.49,2.12,2.5,2.85,1,.74,2.1,1.28,3.3,1.61s2.41.51,3.64.51,2.38-.18,3.53-.52c1.15-.35,2.19-.87,3.11-1.56.93-.69,1.67-1.53,2.23-2.51.56-.99.85-2.15.85-3.47,0-2.23-.63-3.92-1.9-5.08-1.26-1.16-3-1.94-5.2-2.35ZM433.4,364.36h17.15v-3.94h-12.27v-7.47h11.15v-3.83h-11.15v-7.09h12.27v-3.94h-17.15v26.27ZM480.76,354.73c-.53-1.04-1.29-1.88-2.29-2.53.95-.73,1.69-1.6,2.23-2.63.54-1.02.81-2.15.81-3.38,0-1.55-.34-2.93-1.01-4.15-.68-1.21-1.7-2.18-3.08-2.89-1.38-.71-3.13-1.07-5.25-1.07h-11v26.27h4.88v-10.09h6.12c1.13,0,2.01.14,2.64.43.64.29,1.11.74,1.41,1.35.3.61.47,1.4.53,2.35l.41,5.97h4.77l-.3-6.04c-.05-1.35-.34-2.55-.86-3.58ZM475.43,349.2c-.75.75-1.94,1.13-3.57,1.13h-5.82v-8.26h5.82c1.65,0,2.85.36,3.58,1.09.74.73,1.11,1.74,1.11,3.04s-.37,2.25-1.13,3ZM501.99,359.37l-7.36-21.28h-5.21l9.61,26.27h5.93l9.61-26.27h-5.14l-7.43,21.28ZM528.33,338.09l-9.57,26.27h5.1l2.11-6.04h10.23l2.11,6.04h5.14l-9.61-26.27h-5.52ZM527.31,354.49l3.78-10.84,3.78,10.84h-7.56ZM570.37,356.48l-12.27-18.39h-4.88v26.27h4.88v-18.35l12.27,18.35h4.88v-26.27h-4.88v18.39ZM594.34,343.17c1.15-.74,2.53-1.11,4.13-1.11,1.75,0,3.15.4,4.2,1.2,1.05.8,1.72,1.91,2.03,3.34h5.4c-.5-2.83-1.76-5.03-3.77-6.6-2.02-1.58-4.61-2.36-7.79-2.36-2.63,0-4.9.57-6.81,1.72-1.91,1.15-3.38,2.75-4.41,4.8-1.03,2.05-1.54,4.42-1.54,7.09s.51,5.03,1.54,7.07c1.02,2.04,2.49,3.63,4.41,4.77,1.91,1.14,4.18,1.71,6.81,1.71,3.18,0,5.77-.77,7.79-2.31,2.01-1.54,3.26-3.7,3.73-6.47h-5.37c-.32,1.43-1.01,2.51-2.04,3.26-1.04.75-2.43,1.13-4.19,1.13-1.6,0-2.98-.37-4.13-1.11-1.15-.74-2.04-1.79-2.66-3.15-.63-1.36-.94-3-.94-4.9s.31-3.54.94-4.92c.63-1.38,1.52-2.43,2.66-3.17ZM635.02,338.09l-5.8,12-5.83-12h-5.55l8.89,16.96v9.31h4.88v-9.31l8.89-16.96h-5.48Z"/>
  </g>
</svg>